<svg width="16" height="16" viewBox="0 0 16 16" fill="none" xmlns="http://www.w3.org/2000/svg">
<rect x="1.21504" y="1.47627" width="13.7236" height="13.7236" rx="6.86178" stroke="#5D9CEC" stroke-width="1.6"/>
<path d="M5.71174 10.8545C5.98879 11.1602 6.84859 11.8672 8.10963 11.8672C8.85479 11.8672 9.44709 11.6665 9.87699 11.2557C10.3164 10.845 10.5362 10.3482 10.5362 9.75587C10.5362 8.64769 9.76235 8.09359 8.98853 7.74967C8.21471 7.36754 7.4409 7.22424 7.4409 6.79434C7.4409 6.49819 7.75616 6.33578 8.13829 6.33578C8.48221 6.33578 8.80702 6.50774 8.80702 6.73702C8.80702 6.90058 8.93961 7.03318 9.10317 7.03318H9.59039C10.0019 7.03318 10.3356 6.69956 10.3356 6.28802C10.3356 5.9632 10.2114 5.68616 9.97253 5.44732C9.73369 5.20849 9.44709 5.04608 9.13183 4.95055C8.81657 4.85502 8.49176 4.80725 8.15739 4.80725C7.46956 4.80725 6.8868 4.99832 6.41869 5.38045C5.95058 5.76258 5.7213 6.25936 5.7213 6.86122C5.7213 7.65414 6.20852 8.28466 6.81038 8.62858C7.11608 8.79099 7.42179 8.94384 7.71794 9.07759C8.32935 9.33553 8.81657 9.57436 8.81657 9.84185C8.81657 10.1762 8.58729 10.3482 8.12874 10.3482C7.61286 10.3482 7.1543 10.0616 6.85814 9.8323C6.69239 9.68816 6.4423 9.69683 6.30592 9.86902L5.70886 10.6229C5.65488 10.691 5.65608 10.7877 5.71174 10.8545Z" fill="#5D9CEC"/>
</svg>
